<?xml version="1.0" standalone="no"?>
<!DOCTYPE svg PUBLIC "-//W3C//DTD SVG 20010904//EN"
 "http://www.w3.org/TR/2001/REC-SVG-20010904/DTD/svg10.dtd">
<svg version="1.0" xmlns="http://www.w3.org/2000/svg"
 width="1080.000000pt" height="1080.000000pt" viewBox="0 0 1080.000000 1080.000000"
 preserveAspectRatio="xMidYMid meet">
<metadata>
Created by potrace 1.14, written by Peter Selinger 2001-2017
</metadata>
<g transform="translate(0.000000,1080.000000) scale(0.100000,-0.100000)"
fill="#000000" stroke="none">
<path d="M5148 10404 c-2 -1 -55 -5 -118 -9 -63 -4 -128 -8 -145 -9 -65 -7
-161 -18 -175 -21 -8 -2 -44 -6 -80 -10 -36 -4 -67 -8 -70 -10 -3 -2 -27 -6
-55 -10 -64 -8 -283 -52 -360 -72 -33 -8 -69 -17 -80 -19 -109 -21 -526 -156
-660 -213 -349 -149 -578 -261 -735 -361 -8 -5 -38 -22 -66 -39 -57 -33 -200
-126 -259 -169 -103 -74 -230 -167 -235 -172 -3 -3 -27 -23 -55 -45 -215 -169
-510 -456 -690 -670 -22 -26 -45 -52 -50 -59 -28 -30 -160 -202 -226 -296 -81
-114 -198 -298 -271 -425 -45 -80 -172 -325 -173 -335 0 -3 -10 -25 -22 -50
-37 -78 -70 -154 -78 -180 -4 -14 -16 -43 -26 -65 -79 -176 -227 -702 -255
-905 -3 -24 -7 -47 -9 -51 -2 -3 -7 -32 -10 -65 -3 -32 -8 -66 -10 -74 -2 -8
-6 -40 -10 -70 -3 -30 -8 -71 -10 -90 -16 -126 -20 -218 -20 -480 0 -257 5
-390 19 -505 2 -16 7 -61 11 -100 4 -38 9 -79 11 -90 2 -10 6 -35 9 -55 3 -20
7 -47 10 -60 3 -14 8 -41 11 -60 11 -69 56 -276 76 -350 42 -161 51 -189 98
-330 190 -566 492 -1108 874 -1570 167 -202 365 -407 557 -575 100 -88 117
-103 199 -167 135 -107 136 -108 274 -205 446 -313 955 -557 1511 -724 72 -22
139 -41 150 -43 11 -2 58 -14 104 -26 46 -11 104 -25 130 -31 25 -5 55 -11 66
-14 28 -6 64 -12 195 -34 101 -17 139 -23 248 -36 13 -2 55 -6 95 -10 40 -4
80 -9 91 -11 26 -5 353 -17 466 -17 90 0 355 11 430 18 144 13 178 16 200 20
14 2 50 7 80 10 47 5 106 15 310 50 42 7 76 15 245 55 702 165 1388 495 1982
950 309 237 601 527 902 895 9 11 34 45 56 75 21 30 42 57 45 60 3 3 14 19 26
35 299 430 504 831 657 1285 76 225 145 487 171 650 3 19 8 46 11 60 6 30 20
115 30 185 43 296 52 812 21 1110 -2 17 -6 57 -10 90 -3 33 -8 71 -11 85 -2
14 -7 42 -10 63 -3 20 -7 54 -10 75 -30 203 -112 533 -193 772 -138 408 -326
786 -574 1158 -664 994 -1701 1743 -2881 2082 -111 32 -414 104 -477 114 -19
2 -75 12 -125 20 -49 9 -110 18 -135 21 -25 3 -58 8 -75 10 -16 3 -52 7 -80
10 -82 8 -166 15 -230 21 -64 6 -603 13 -607 8z"/>
</g>
</svg>
